<?xml version="1.0" encoding="UTF-8" standalone="no"?>
<!-- Generator: Adobe Illustrator 19.2.1, SVG Export Plug-In . SVG Version: 6.00 Build 0)  -->

<svg
   xmlns:dc="http://purl.org/dc/elements/1.1/"
   xmlns:cc="http://creativecommons.org/ns#"
   xmlns:rdf="http://www.w3.org/1999/02/22-rdf-syntax-ns#"
   xmlns:svg="http://www.w3.org/2000/svg"
   xmlns="http://www.w3.org/2000/svg"
   xmlns:sodipodi="http://sodipodi.sourceforge.net/DTD/sodipodi-0.dtd"
   xmlns:inkscape="http://www.inkscape.org/namespaces/inkscape"
   version="1.1"
   id="layer"
   x="0px"
   y="0px"
   viewBox="0 0 400 400.00001"
   xml:space="preserve"
   sodipodi:docname="untappd.svg"
   width="400"
   height="400"
   inkscape:version="0.92.4 (5da689c313, 2019-01-14)"><metadata
   id="metadata895"><rdf:RDF><cc:Work
       rdf:about=""><dc:format>image/svg+xml</dc:format><dc:type
         rdf:resource="http://purl.org/dc/dcmitype/StillImage" /><dc:title></dc:title></cc:Work></rdf:RDF></metadata><defs
   id="defs893" /><sodipodi:namedview
   pagecolor="#ffffff"
   bordercolor="#666666"
   borderopacity="1"
   objecttolerance="10"
   gridtolerance="10"
   guidetolerance="10"
   inkscape:pageopacity="0"
   inkscape:pageshadow="2"
   inkscape:window-width="1207"
   inkscape:window-height="699"
   id="namedview891"
   showgrid="false"
   inkscape:zoom="0.74181141"
   inkscape:cx="-72.189334"
   inkscape:cy="197.27172"
   inkscape:window-x="200"
   inkscape:window-y="21"
   inkscape:window-maximized="0"
   inkscape:current-layer="g886" />
<style
   type="text/css"
   id="style856">
	.st0{fill:#FFC000;}
</style>
<g
   id="g888"
   transform="translate(-148.84924,40.946513)">
	
	<g
   transform="translate(0,120.906)"
   id="g882">
		
	</g>
	<g
   transform="translate(92.052185,-59.314267)"
   id="g886">
		<path
   class="st0"
   d="M 239.96428,236.96827 145.113,383.58954 c -4.89041,7.55129 -13.07901,11.45281 -21.26761,10.32012 C 114.40575,392.6511 101.44047,388.7496 88.133995,378.0519 74.71379,367.35421 67.321304,355.02041 63.113274,345.58128 59.473896,337.27483 60.27001,327.45812 65.046693,319.90682 L 159.89798,173.28555 c 4.54922,-6.92204 10.4632,-12.71139 17.28704,-16.73874 l 18.65181,-10.94941 c 3.75311,-2.13954 7.0513,-5.16006 9.89456,-8.55815 9.09844,-11.32696 33.32306,-41.154637 76.54067,-89.357161 l 0.79611,-3.775655 c 0.22746,-0.880986 0.79611,-1.636118 1.59222,-1.761972 l 2.38835,-0.629276 c 1.02357,-0.251711 1.70595,-1.384407 1.59222,-2.517104 l -0.22746,-3.272234 c -0.11372,-1.384408 0.79611,-2.517103 2.04715,-2.517103 2.84326,-0.125856 8.41607,0.880985 16.26347,7.047889 7.84741,6.292758 10.46321,11.830386 11.25933,14.850909 0.34119,1.258552 -0.3412,2.642959 -1.59223,3.020524 l -2.84326,0.755132 c -1.02358,0.25171 -1.70596,1.384407 -1.70596,2.517103 l 0.22746,2.768814 c 0.11373,0.880987 -0.34119,1.761972 -1.02358,2.265393 l -3.07072,2.013683 c -27.29534,60.662198 -45.0373,95.775778 -51.86113,108.990578 -2.16088,4.02736 -3.52566,8.55815 -4.20803,13.21479 l -3.29819,23.15736 c -1.13731,8.05472 -4.09431,16.10945 -8.64353,23.15735 z m 207.44453,82.81268 -94.85128,-146.62127 c -4.54922,-6.92202 -10.46321,-12.71137 -17.28704,-16.73873 l -18.65181,-10.94939 c -3.75311,-2.13955 -7.0513,-5.16007 -9.89456,-8.55816 -2.27461,-2.76882 -5.45907,-6.79618 -9.55336,-11.83039 -0.68239,-0.75513 -1.81969,-0.62927 -2.27461,0.37757 -14.33005,30.5828 -24.11088,49.58693 -28.43264,58.14508 -1.36477,2.76883 -2.38835,5.6635 -2.84327,8.68402 -0.90984,6.54446 -0.90984,13.34065 0,19.88511 l 0.11373,1.13269 c 1.25104,8.4323 4.20804,16.48703 8.75726,23.53492 l 94.85128,146.62128 c 4.77668,7.42546 12.85155,11.45281 21.04015,10.32012 9.43963,-1.25855 22.51865,-5.16007 35.93886,-15.85775 13.4202,-10.69769 20.81268,-23.0315 25.02072,-32.47064 3.63938,-8.30644 2.95699,-18.12314 -1.93343,-25.67446 M 196.0643,57.876358 l 2.84326,0.75513 c 1.02357,0.251711 1.70596,1.384407 1.70596,2.517104 l -0.22747,2.768813 c -0.11373,0.880987 0.34119,1.761972 1.02358,2.265394 l 3.07072,2.013682 c 5.00415,11.20111 9.78083,21.521232 14.10259,30.960372 0.45492,0.880987 1.4785,1.132697 2.16088,0.37756 7.16502,-8.43229 15.69482,-18.500705 25.81683,-30.07938 0.79613,-1.006841 0.90985,-2.517104 0,-3.398089 -5.11787,-5.789338 -10.4632,-11.830386 -16.3772,-18.374855 l -0.79611,-3.775655 c -0.11372,-0.880986 -0.79611,-1.510262 -1.59222,-1.761972 l -2.38835,-0.629276 c -1.02357,-0.251711 -1.70595,-1.384407 -1.59222,-2.517104 l 0.22746,-3.272234 c 0.11372,-1.384408 -0.79611,-2.517103 -2.04715,-2.517103 -2.84326,-0.125856 -8.41607,0.755131 -16.3772,7.047889 -7.84741,6.292758 -10.46321,11.830386 -11.25933,14.850909 -0.22746,1.132697 0.56865,2.517105 1.70597,2.768815"
   id="path884"
   inkscape:connector-curvature="0"
   style="fill:#c86e22;fill-opacity:1;stroke-width:1.19639361" />
	</g>
</g>
</svg>