<?xml version="1.0" encoding="UTF-8" standalone="no"?>
<svg
   xmlns:dc="http://purl.org/dc/elements/1.1/"
   xmlns:cc="http://creativecommons.org/ns#"
   xmlns:rdf="http://www.w3.org/1999/02/22-rdf-syntax-ns#"
   xmlns:svg="http://www.w3.org/2000/svg"
   xmlns="http://www.w3.org/2000/svg"
   xmlns:sodipodi="http://sodipodi.sourceforge.net/DTD/sodipodi-0.dtd"
   xmlns:inkscape="http://www.inkscape.org/namespaces/inkscape"
   height="50"
   viewBox="0 0 37.5 37.5"
   width="50"
   version="1.1"
   id="svg827"
   sodipodi:docname="language.svg"
   inkscape:version="0.92.4 (5da689c313, 2019-01-14)">
  <metadata
     id="metadata833">
    <rdf:RDF>
      <cc:Work
         rdf:about="">
        <dc:format>image/svg+xml</dc:format>
        <dc:type
           rdf:resource="http://purl.org/dc/dcmitype/StillImage" />
        <dc:title></dc:title>
      </cc:Work>
    </rdf:RDF>
  </metadata>
  <defs
     id="defs831" />
  <sodipodi:namedview
     pagecolor="#ffffff"
     bordercolor="#666666"
     borderopacity="1"
     objecttolerance="10"
     gridtolerance="10"
     guidetolerance="10"
     inkscape:pageopacity="0"
     inkscape:pageshadow="2"
     inkscape:window-width="1128"
     inkscape:window-height="651"
     id="namedview829"
     showgrid="false"
     units="px"
     inkscape:zoom="1.14375"
     inkscape:cx="166.99454"
     inkscape:cy="40.218579"
     inkscape:window-x="410"
     inkscape:window-y="116"
     inkscape:window-maximized="0"
     inkscape:current-layer="svg827"
     fit-margin-top="0"
     fit-margin-left="0"
     fit-margin-right="0"
     fit-margin-bottom="0" />
  <path
     d="M 18.75,0 C 8.394775,0 0,8.394775 0,18.75 0,29.105225 8.394775,37.5 18.75,37.5 29.105225,37.5 37.5,29.105225 37.5,18.75 37.4884,8.399658 29.100342,0.011597 18.75,0 Z m 16.216127,25.3186 -5.33234,0.92011 c 0.610353,-2.238465 0.93994,-4.544065 0.981143,-6.86371 h 5.619505 c -0.0705,2.040405 -0.499877,4.05243 -1.268308,5.9436 z M 1.2655641,19.375 H 6.885071 c 0.0412,2.319645 0.370788,4.625245 0.981142,6.86371 L 2.5338743,25.3186 C 1.7654418,23.42743 1.3360596,21.415405 1.2655641,19.375 Z M 2.5338743,12.181395 7.8662135,11.261292 C 7.255859,13.499755 6.926269,15.80536 6.885071,18.125 H 1.2655641 c 0.070496,-2.040405 0.4998777,-4.05243 1.2683102,-5.943605 z M 19.375,10.035095 c 2.245789,0.02869 4.486086,0.233155 6.700135,0.611878 l 2.206117,0.380554 c 0.67779,2.306518 1.042475,4.693603 1.084288,7.097473 H 19.375 Z M 26.288142,9.414977 C 24.003904,9.024658 21.692204,8.813783 19.375,8.785095 v -7.5 c 3.583065,0.344237 6.695557,3.624878 8.459472,8.399353 z M 18.125,8.785095 c -2.317204,0.02869 -4.628293,0.239563 -6.912532,0.629882 L 9.6655285,9.682617 C 11.429443,4.90692 14.541935,1.62506 18.125,1.282347 Z m -6.699523,1.861878 C 13.639219,10.26825 15.87921,10.063783 18.125,10.035095 V 18.125 H 8.1344595 c 0.041815,-2.40387 0.406497,-4.790955 1.084288,-7.097473 z M 8.1344595,19.375 H 18.125 v 8.089905 c -2.24579,-0.0287 -4.486086,-0.233155 -6.700135,-0.61188 L 9.2187475,26.472475 C 8.5409565,24.165955 8.176272,21.77887 8.1344595,19.375 Z m 3.0773975,8.710025 c 2.284238,0.390925 4.595643,0.60272 6.913143,0.63324 v 7.5 C 14.541935,35.873715 11.429443,32.59308 9.665528,27.8186 Z m 8.163143,0.63324 c 2.317204,-0.0305 4.628293,-0.242315 6.912532,-0.63324 l 1.54694,-0.26764 C 26.070557,32.59308 22.958065,35.87494 19.375,36.21765 Z m 6.699522,-1.86524 C 23.86078,27.23175 21.620789,27.436215 19.375,27.464905 V 19.375 h 9.99054 c -0.04181,2.40387 -0.406498,4.790955 -1.084288,7.097475 z M 30.61493,18.125 c -0.04121,-2.31964 -0.37079,-4.625245 -0.981143,-6.863708 l 5.33234,0.920103 c 0.76843,1.891175 1.19781,3.9032 1.268308,5.943605 z M 34.3338,10.803832 29.222415,9.921875 c -0.91889,-2.997743 -2.637943,-5.68817 -4.972537,-7.781373 4.365539,1.45691 7.985842,4.566956 10.083922,8.66333 z M 13.250122,2.140502 C 10.915528,4.233705 9.1964745,6.924132 8.2775835,9.921875 L 3.166199,10.803832 C 5.264282,6.707458 8.884582,3.597412 13.250122,2.140502 Z m -10.083923,24.555663 5.1113845,0.88196 c 0.918891,2.99774 2.6379445,5.68817 4.9725385,7.78137 C 8.884582,33.90259 5.2642815,30.79254 3.166199,26.696165 Z m 21.083679,8.66333 c 2.334594,-2.0932 4.053647,-4.78363 4.972539,-7.78137 l 5.111383,-0.88196 c -2.09808,4.096375 -5.718383,7.206425 -10.083922,8.66333 z m 0,0"
     id="path825"
     inkscape:connector-curvature="0"
     style="stroke-width:0.07812499" />
</svg>
